<?xml version="1.0" encoding="utf-8"?>
<!-- Generator: Adobe Illustrator 16.0.0, SVG Export Plug-In . SVG Version: 6.00 Build 0)  -->
<!DOCTYPE svg PUBLIC "-//W3C//DTD SVG 1.1//EN" "http://www.w3.org/Graphics/SVG/1.1/DTD/svg11.dtd">
<svg version="1.1" id="Layer_1" xmlns="http://www.w3.org/2000/svg" xmlns:xlink="http://www.w3.org/1999/xlink" x="0px" y="0px"
	 width="749.434px" height="378.468px" viewBox="0 0 749.434 378.468" enable-background="new 0 0 749.434 378.468"
	 xml:space="preserve">
<g>
	<path fill="#FFFFFF" d="M96.643,82.463H23.041C9.28,82.463,0,92.063,0,105.824v272.645h42.881v-79.521h34.241v79.521h42.881
		V105.824C120.003,92.063,110.403,82.463,96.643,82.463z M77.122,263.106H42.881V123.744c0-2.88,2.24-5.12,5.44-5.12h23.041
		c3.2,0,5.76,1.92,5.76,5.12V263.106z"/>
	<path fill="#FFFFFF" d="M258.561,190.625c15.041-2.88,24.641-12.48,24.641-28.48v-56.001c0-13.761-9.92-23.681-24.32-23.681
		h-98.242v216.005h98.562c14.4,0,24.321-9.601,24.321-24.001v-56.321C283.522,203.747,273.602,193.826,258.561,190.625z
		 M240.641,259.107c0,2.24-1.6,4.16-4.48,4.16H203.84v-56.961h32.321c2.88,0,4.48,1.92,4.48,4.48V259.107z M240.641,167.905
		c0,2.88-1.6,4.8-4.48,4.8H203.84v-54.401h32.321c2.88,0,4.48,1.92,4.48,4.8V167.905z"/>
	<path fill="#FFFFFF" d="M416.639,82.463h-73.602c-13.76,0-23.041,9.6-23.041,23.36v192.645h42.881v-59.521h34.241v59.521h42.881
		V105.824C439.999,92.063,430.398,82.463,416.639,82.463z M397.118,203.106h-34.241v-79.362c0-2.88,2.24-5.12,5.44-5.12h23.041
		c3.199,0,5.76,1.92,5.76,5.12V203.106z"/>
	<path fill="#FFFFFF" d="M572.157,81.183h-68.162c-14.72,0-25.28,10.561-25.28,25.921v167.044c0,15.04,10.561,25.601,25.28,25.601
		h68.162c15.04,0,25.601-10.561,25.601-25.601v-56.321h-43.201v41.601c0,1.92-1.28,3.2-2.88,3.2h-26.881c-1.6,0-2.88-1.28-2.88-3.2
		V121.504c0-1.92,1.28-3.521,2.88-3.521h27.521c0.96,0,2.24,1.6,2.24,3.521v40.961h43.201v-55.361
		C597.758,91.744,587.197,81.183,572.157,81.183z"/>
	<path fill="#FFFFFF" d="M726.073,82.463h-73.602c-13.761,0-23.041,9.6-23.041,23.36v272.645h42.881v-79.521h34.241v79.521h42.881
		V105.824C749.434,92.063,739.833,82.463,726.073,82.463z M706.553,263.106h-34.241V123.744c0-2.88,2.24-5.12,5.44-5.12h23.04
		c3.2,0,5.761,1.92,5.761,5.12V263.106z"/>
	<path fill="#FFFFFF" d="M226.766,362.678c0-0.561-0.204-1.02-0.51-1.326l-2.907-2.855c-0.51-0.51-0.918-0.561-1.224-0.561h-11.27
		c-0.204,0-0.408-0.103-0.561-0.256l-1.173-1.173c-0.153-0.152-0.204-0.255-0.204-0.407v-7.089c0-0.152,0.051-0.306,0.153-0.407
		l1.224-1.275c0.051-0.051,0.102-0.102,0.255-0.102h9.791c0.102,0,0.153,0.051,0.204,0.102l1.275,1.326
		c0.102,0.102,0.204,0.255,0.204,0.459v3.416c0,0.408,0.306,0.714,0.714,0.714h3.314c0.408,0,0.714-0.306,0.714-0.714v-5.354
		c0-0.662-0.153-0.969-0.51-1.325l-2.907-2.855c-0.561-0.562-1.173-0.511-1.275-0.511h-13.208c-0.714,0-0.969,0.153-1.275,0.511
		l-2.856,2.906c-0.408,0.408-0.561,0.815-0.561,1.274v10.812c0,0.356-0.051,0.663,0.561,1.274l2.856,2.856
		c0.459,0.459,0.816,0.561,1.173,0.561h11.729l1.53,1.479v7.496c0,0.153-0.051,0.204-0.102,0.256l-1.275,1.224
		c-0.102,0.102-0.255,0.204-0.408,0.204h-9.332c-0.255,0-0.357-0.103-0.459-0.204l-1.275-1.275c-0.153-0.152-0.255-0.255-0.255-0.51
		v-3.009c0-0.408-0.306-0.714-0.714-0.714h-3.314c-0.408,0-0.714,0.306-0.714,0.714v5.049c0,0.408,0.051,0.765,0.561,1.274
		l2.856,2.856c0.357,0.356,0.867,0.561,1.326,0.561h13.157c0.561,0,0.918-0.204,1.275-0.561l2.855-2.856
		c0.612-0.611,0.561-1.173,0.561-1.325V362.678z"/>
	<path fill="#FFFFFF" d="M266.597,342.484h-3.315c-0.408,0-0.714,0.357-0.714,0.714v28.455c0,0.103-0.051,0.153-0.102,0.204
		l-1.274,1.275c-0.102,0.102-0.306,0.204-0.612,0.204h-9.128c-0.204,0-0.357-0.103-0.459-0.204l-1.326-1.275l-0.204-0.356v-28.303
		c0-0.356-0.306-0.714-0.714-0.714h-3.315c-0.408,0-0.714,0.357-0.714,0.714v30.139c0,0.561,0.204,0.969,0.561,1.325l2.856,2.856
		c0.306,0.306,0.663,0.561,1.326,0.561h13.157c0.561,0,0.969-0.255,1.275-0.561l2.855-2.856c0.408-0.407,0.561-0.765,0.561-1.274
		v-30.189C267.311,342.841,267.004,342.484,266.597,342.484z"/>
	<path fill="#FFFFFF" d="M303.827,342.995c-0.459-0.459-0.969-0.511-1.326-0.511h-16.165c-0.408,0-0.714,0.307-0.714,0.714v34.167
		c0,0.408,0.306,0.714,0.714,0.714h3.314c0.408,0,0.714-0.306,0.714-0.714v-12.392H302.5c0.459,0,0.867-0.103,1.326-0.562
		l2.855-2.855c0.357-0.356,0.561-0.815,0.561-1.274v-13.055c0-0.511-0.153-0.969-0.561-1.377L303.827,342.995z M302.5,358.395
		l-0.204,0.356l-1.326,1.275c-0.102,0.102-0.204,0.152-0.306,0.203h-10.301v-13.003h10.25c0.204,0,0.255,0,0.357,0.102l1.326,1.326
		c0.102,0.102,0.204,0.306,0.204,0.459V358.395z"/>
	<path fill="#FFFFFF" d="M343.25,342.995c-0.459-0.459-0.969-0.511-1.326-0.511h-16.165c-0.408,0-0.714,0.307-0.714,0.714v34.167
		c0,0.408,0.306,0.714,0.714,0.714h3.314c0.408,0,0.714-0.306,0.714-0.714v-12.392h12.137c0.459,0,0.867-0.103,1.326-0.562
		l2.855-2.855c0.357-0.356,0.561-0.815,0.561-1.274v-13.055c0-0.511-0.153-0.969-0.561-1.377L343.25,342.995z M341.923,358.395
		l-0.204,0.356l-1.326,1.275c-0.102,0.102-0.204,0.152-0.306,0.203h-10.301v-13.003h10.25c0.204,0,0.255,0,0.357,0.102l1.326,1.326
		c0.102,0.102,0.204,0.306,0.204,0.459V358.395z"/>
	<path fill="#FFFFFF" d="M384.202,373.336h-14.993v-30.24c0-0.357-0.357-0.612-0.714-0.612h-3.314c-0.357,0-0.714,0.255-0.714,0.612
		v34.269c0,0.408,0.306,0.714,0.714,0.714h19.021c0.407,0,0.714-0.306,0.714-0.714v-3.314
		C384.916,373.642,384.609,373.336,384.202,373.336z"/>
	<path fill="#FFFFFF" d="M418.729,342.484h-3.825c-0.407,0-0.611,0.255-0.866,0.663l-7.803,14.278l-7.803-14.278
		c-0.255-0.408-0.458-0.663-0.866-0.663h-3.825c-0.765,0-1.02,0.408-0.714,0.918l10.812,19.531v14.432
		c0,0.408,0.255,0.714,0.612,0.714h3.569c0.306,0,0.561-0.306,0.561-0.714v-14.381l10.862-19.582
		C419.748,342.892,419.493,342.484,418.729,342.484z"/>
	<path fill="#FFFFFF" d="M479.265,342.995c-0.306-0.307-0.714-0.511-1.274-0.511h-13.208c-0.51,0-0.918,0.153-1.274,0.511
		l-2.855,2.906c-0.612,0.612-0.562,1.274-0.562,1.274v26.212c0,0-0.051,0.663,0.562,1.274l2.855,2.856
		c0.356,0.356,0.765,0.561,1.377,0.561h13.105c0.714,0,0.918-0.204,1.274-0.561l2.856-2.856c0.51-0.459,0.561-1.02,0.561-1.224
		v-5.405c0-0.408-0.306-0.714-0.714-0.714h-3.314c-0.408,0-0.714,0.306-0.714,0.714v3.468l-0.204,0.356l-1.275,1.275l-0.356,0.204
		h-9.435l-0.356-0.204l-1.275-1.275l-0.203-0.356v-22.54c0.051-0.102,0.102-0.204,0.203-0.306l1.275-1.326
		c0.051-0.051,0.102-0.102,0.204-0.102h9.791c0.102,0.051,0.152,0.102,0.204,0.152l1.224,1.275c0.102,0.102,0.204,0.204,0.204,0.459
		v3.519c0,0.408,0.306,0.714,0.714,0.714h3.314c0.408,0,0.714-0.306,0.714-0.714v-5.457c0-0.51-0.102-0.917-0.51-1.325
		L479.265,342.995z"/>
	<path fill="#FFFFFF" d="M519.197,342.995c-0.459-0.459-0.866-0.511-1.274-0.511h-13.259c-0.459,0-0.815,0.103-1.224,0.511
		l-2.907,2.855c-0.407,0.408-0.51,0.714-0.51,1.325v26.161c0,0.407,0.103,0.866,0.562,1.325l2.855,2.856
		c0.306,0.306,0.663,0.561,1.274,0.561h13.208c0.612,0,0.969-0.255,1.274-0.561l2.856-2.856c0.407-0.407,0.561-0.918,0.561-1.529
		v-25.854c0-0.357,0-0.918-0.51-1.428L519.197,342.995z M517.872,371.653c0,0.103-0.052,0.204-0.103,0.256l-1.224,1.224
		c-0.102,0.102-0.255,0.204-0.51,0.204H506.5c-0.153,0-0.306-0.103-0.408-0.204l-1.224-1.224c-0.051-0.052-0.103-0.153-0.103-0.256
		v-22.998l1.275-1.275c0.153-0.152,0.255-0.152,0.357-0.152h9.842c0.102,0,0.204,0,0.356,0.152l1.275,1.275V371.653z"/>
	<path fill="#FFFFFF" d="M544.546,372.623h-3.314c-0.408,0-0.714,0.306-0.714,0.714v4.13c0,0.357,0.356,0.612,0.714,0.612h3.314
		c0.357,0,0.714-0.255,0.714-0.612v-4.13C545.26,372.928,544.954,372.623,544.546,372.623z"/>
	<path fill="#FFFFFF" d="M167.304,35.596h3.314c0.408,0,0.714-0.306,0.714-0.714V21.165h13.106v13.718
		c0,0.408,0.306,0.714,0.714,0.714h3.314c0.408,0,0.714-0.306,0.714-0.714V0.715c0-0.407-0.306-0.714-0.714-0.714h-3.314
		c-0.408,0-0.714,0.307-0.714,0.714v15.707h-13.106V0.715c0-0.407-0.306-0.714-0.714-0.714h-3.314c-0.408,0-0.714,0.307-0.714,0.714
		v34.167C166.589,35.291,166.896,35.596,167.304,35.596z"/>
	<path fill="#FFFFFF" d="M206.114,35.596h3.06c0.408,0,0.816-0.357,0.969-0.816l2.448-8.158h13.157l2.448,8.261
		c0.102,0.356,0.561,0.714,0.918,0.714h3.11c0.408,0,0.816-0.357,0.714-0.714L222.892,0.767c-0.153-0.459-0.306-0.714-0.714-0.714
		h-6.017c-0.408,0-0.561,0.255-0.714,0.714L205.35,34.882C205.248,35.239,205.707,35.596,206.114,35.596z M219.169,4.286
		l5.202,17.542h-10.403L219.169,4.286z"/>
	<path fill="#FFFFFF" d="M249.821,35.596h3.314c0.408,0,0.714-0.306,0.714-0.714V8.722l11.984,26.211
		c0.153,0.306,0.408,0.663,0.816,0.663h3.723c0.408,0,0.765-0.306,0.765-0.714V0.715c0-0.407-0.357-0.714-0.765-0.714h-3.314
		c-0.357,0-0.714,0.307-0.714,0.714v24.427L255.43,0.715c-0.204-0.459-0.357-0.714-0.765-0.714h-4.844
		c-0.408,0-0.714,0.307-0.714,0.714v34.167C249.107,35.291,249.413,35.596,249.821,35.596z"/>
	<path fill="#FFFFFF" d="M307.806,0.512c-0.459-0.459-0.918-0.511-1.326-0.511h-16.165c-0.408,0-0.714,0.307-0.714,0.714v34.167
		c0,0.408,0.306,0.714,0.714,0.714h16.165c0.714,0,0.918-0.153,1.326-0.561l2.855-2.856c0.51-0.51,0.561-1.02,0.561-1.274V4.693
		c0-0.611-0.153-0.917-0.561-1.325L307.806,0.512z M306.479,28.814c0,0.306-0.051,0.356-0.255,0.561l-1.275,1.275l-0.357,0.204
		h-10.25V4.745h10.352c0.153,0,0.204,0.051,0.255,0.102l1.275,1.326c0.153,0.204,0.255,0.356,0.255,0.51V28.814z"/>
	<path fill="#FFFFFF" d="M329.737,32.179l2.856,2.856c0.357,0.356,0.765,0.561,1.376,0.561h13.106c0.714,0,0.918-0.204,1.275-0.561
		l2.855-2.856c0.51-0.459,0.561-1.02,0.561-1.224V25.55c0-0.408-0.306-0.714-0.714-0.714h-3.314c-0.408,0-0.714,0.306-0.714,0.714
		v3.468l-0.204,0.356l-1.275,1.275l-0.357,0.204h-9.434l-0.357-0.204l-1.275-1.275l-0.204-0.356V6.478
		c0.051-0.102,0.102-0.204,0.204-0.306l1.275-1.326c0.051-0.051,0.102-0.102,0.204-0.102h9.791c0.102,0.051,0.153,0.102,0.204,0.152
		l1.224,1.275c0.102,0.102,0.204,0.204,0.204,0.459v3.519c0,0.408,0.306,0.714,0.714,0.714h3.314c0.408,0,0.714-0.306,0.714-0.714
		V4.693c0-0.51-0.102-0.917-0.51-1.325l-2.907-2.855c-0.306-0.307-0.714-0.511-1.275-0.511h-13.208c-0.51,0-0.918,0.153-1.275,0.511
		l-2.856,2.906c-0.612,0.612-0.561,1.274-0.561,1.274v26.212C329.176,30.905,329.125,31.568,329.737,32.179z"/>
	<path fill="#FFFFFF" d="M370.077,35.596h3.314c0.408,0,0.714-0.306,0.714-0.714V22.491h8.363l4.998,12.392
		c0.152,0.356,0.561,0.714,0.918,0.714h3.518c0.561,0,0.766-0.357,0.611-0.714l-5.15-12.749l3.061-3.06
		c0.561-0.561,0.561-1.07,0.561-1.428V4.693c0-0.51-0.307-1.07-0.561-1.325l-2.855-2.855c-0.561-0.562-0.867-0.511-1.326-0.511
		h-16.165c-0.408,0-0.714,0.307-0.714,0.714v34.167C369.363,35.291,369.669,35.596,370.077,35.596z M374.105,4.745h10.25
		c0.203,0,0.307,0.051,0.459,0.204l1.225,1.224c0.102,0.102,0.203,0.306,0.203,0.459v9.281c0,0.152-0.102,0.306-0.203,0.407
		l-1.326,1.275c-0.104,0.102-0.154,0.152-0.307,0.152h-10.301V4.745z"/>
	<path fill="#FFFFFF" d="M407.461,35.596h3.059c0.408,0,0.816-0.357,0.969-0.816l2.447-8.158h13.158l2.447,8.261
		c0.102,0.356,0.561,0.714,0.918,0.714h3.111c0.406,0,0.814-0.357,0.713-0.714L424.238,0.767c-0.154-0.459-0.307-0.714-0.715-0.714
		h-6.018c-0.408,0-0.561,0.255-0.713,0.714l-10.098,34.115C406.594,35.239,407.053,35.596,407.461,35.596z M420.516,4.286
		l5.201,17.542h-10.404L420.516,4.286z"/>
	<path fill="#FFFFFF" d="M468.096,19.431v-3.315c0-0.407-0.357-0.714-0.713-0.714h-12.188V4.745h14.787
		c0.307,0,0.408-0.408,0.408-0.714V0.715c0-0.407-0.357-0.714-0.713-0.714h-18.512c-0.408,0-0.715,0.307-0.715,0.714v34.167
		c0,0.408,0.307,0.714,0.715,0.714h3.314c0.408,0,0.715-0.306,0.715-0.714V20.145h12.188
		C467.738,20.145,468.096,19.838,468.096,19.431z"/>
	<path fill="#FFFFFF" d="M486.406,4.795h7.803v30.188c0,0.357,0.307,0.612,0.611,0.612h3.57c0.307,0,0.611-0.255,0.611-0.612V4.795
		h7.803c0.408,0,0.713-0.357,0.713-0.714V0.767c0-0.408-0.305-0.766-0.713-0.766h-20.398c-0.408,0-0.713,0.357-0.713,0.766v3.314
		C485.693,4.438,485.998,4.795,486.406,4.795z"/>
	<path fill="#FFFFFF" d="M524.961,35.596h18.512c0.357,0,0.715-0.306,0.715-0.714v-3.314c0-0.408-0.357-0.714-0.715-0.714H528.99
		V20.145h11.424c0.406,0,0.713-0.307,0.713-0.714v-3.315c0-0.407-0.307-0.714-0.713-0.714H528.99V4.745h14.482
		c0.357,0,0.715-0.307,0.715-0.714V0.715c0-0.407-0.357-0.714-0.715-0.714h-18.512c-0.406,0-0.713,0.307-0.713,0.714v34.167
		C524.248,35.291,524.555,35.596,524.961,35.596z"/>
	<path fill="#FFFFFF" d="M561.936,35.596h16.166c0.715,0,0.918-0.153,1.326-0.561l2.855-2.856c0.51-0.51,0.561-1.02,0.561-1.274
		V4.693c0-0.611-0.152-0.917-0.561-1.325l-2.855-2.855c-0.459-0.459-0.918-0.511-1.326-0.511h-16.166
		c-0.406,0-0.713,0.307-0.713,0.714v34.167C561.223,35.291,561.529,35.596,561.936,35.596z M565.965,4.745h10.352
		c0.154,0,0.205,0.051,0.256,0.102l1.275,1.326c0.152,0.204,0.254,0.356,0.254,0.51v22.132c0,0.306-0.051,0.356-0.254,0.561
		l-1.275,1.275l-0.357,0.204h-10.25V4.745z"/>
</g>
</svg>
