<?xml version="1.0" encoding="utf-8"?>
<!-- Generator: Adobe Illustrator 16.0.0, SVG Export Plug-In . SVG Version: 6.00 Build 0)  -->
<!DOCTYPE svg PUBLIC "-//W3C//DTD SVG 1.1//EN" "http://www.w3.org/Graphics/SVG/1.1/DTD/svg11.dtd">
<svg version="1.1" id="Layer_1" xmlns="http://www.w3.org/2000/svg" xmlns:xlink="http://www.w3.org/1999/xlink" x="0px" y="0px"
	 width="749.434px" height="378.415px" viewBox="0 0 749.434 378.415" enable-background="new 0 0 749.434 378.415"
	 xml:space="preserve">
<path fill="#FFFFFF" d="M96.643,82.41H23.041C9.28,82.41,0,92.01,0,105.771v272.646h42.881v-79.521h34.241v79.521h42.881V105.771
	C120.003,92.01,110.403,82.41,96.643,82.41z M77.122,263.053H42.881V123.691c0-2.88,2.24-5.12,5.44-5.12h23.041
	c3.2,0,5.76,1.92,5.76,5.12V263.053z"/>
<path fill="#FFFFFF" d="M258.561,190.573c15.041-2.881,24.641-12.481,24.641-28.481v-56.001c0-13.761-9.92-23.681-24.32-23.681
	H160.64v216.004h98.562c14.4,0,24.321-9.602,24.321-24v-56.322C283.522,203.693,273.602,193.772,258.561,190.573z M240.641,259.053
	c0,2.24-1.6,4.16-4.48,4.16H203.84v-56.961h32.321c2.88,0,4.48,1.92,4.48,4.479V259.053L240.641,259.053z M240.641,167.852
	c0,2.88-1.6,4.8-4.48,4.8H203.84v-54.401h32.321c2.88,0,4.48,1.92,4.48,4.8V167.852L240.641,167.852z"/>
<path fill="#FFFFFF" d="M416.639,82.41h-73.602c-13.76,0-23.041,9.6-23.041,23.36v192.645h42.881v-59.521h34.241v59.521h42.881
	V105.771C439.999,92.01,430.398,82.41,416.639,82.41z M397.118,203.053h-34.241v-79.362c0-2.88,2.24-5.12,5.44-5.12h23.041
	c3.197,0,5.76,1.92,5.76,5.12V203.053L397.118,203.053z"/>
<path fill="#FFFFFF" d="M572.157,81.13h-68.162c-14.72,0-25.28,10.561-25.28,25.921v167.043c0,15.041,10.563,25.602,25.28,25.602
	h68.162c15.04,0,25.601-10.561,25.601-25.602v-56.32h-43.201v41.602c0,1.92-1.278,3.199-2.88,3.199h-26.881
	c-1.6,0-2.88-1.279-2.88-3.199V121.451c0-1.92,1.28-3.521,2.88-3.521h27.521c0.96,0,2.238,1.6,2.238,3.521v40.961h43.201v-55.361
	C597.758,91.69,587.197,81.13,572.157,81.13z"/>
<path fill="#FFFFFF" d="M726.073,82.41H652.47c-13.761,0-23.041,9.6-23.041,23.36v272.645h42.881v-79.521h34.241v79.521h42.881
	V105.771C749.434,92.01,739.833,82.41,726.073,82.41z M706.553,263.053h-34.241V123.691c0-2.88,2.24-5.12,5.44-5.12h23.04
	c3.2,0,5.761,1.92,5.761,5.12V263.053L706.553,263.053z"/>
<path fill="#FFFFFF" d="M228.707,362.625c0-0.563-0.204-1.021-0.51-1.326l-2.907-2.855c-0.51-0.51-0.918-0.561-1.224-0.561h-11.27
	c-0.204,0-0.408-0.104-0.561-0.256l-1.173-1.174c-0.153-0.152-0.204-0.254-0.204-0.406v-7.09c0-0.151,0.051-0.307,0.153-0.406
	l1.224-1.275c0.051-0.051,0.102-0.102,0.255-0.102h9.791c0.102,0,0.153,0.051,0.204,0.102l1.275,1.326
	c0.102,0.102,0.204,0.255,0.204,0.459v3.416c0,0.408,0.306,0.714,0.714,0.714h3.314c0.408,0,0.714-0.306,0.714-0.714v-5.354
	c0-0.662-0.153-0.971-0.51-1.326l-2.907-2.854c-0.561-0.562-1.173-0.511-1.275-0.511h-13.208c-0.714,0-0.969,0.152-1.275,0.511
	l-2.856,2.906c-0.408,0.407-0.561,0.815-0.561,1.274v10.812c0,0.356-0.051,0.663,0.561,1.274l2.856,2.854
	c0.459,0.459,0.816,0.562,1.173,0.562h11.729l1.53,1.479v7.496c0,0.152-0.051,0.204-0.102,0.256l-1.275,1.225
	c-0.102,0.103-0.255,0.205-0.408,0.205h-9.332c-0.255,0-0.357-0.104-0.459-0.205l-1.275-1.274c-0.153-0.152-0.255-0.255-0.255-0.511
	v-3.008c0-0.408-0.306-0.715-0.714-0.715h-3.314c-0.408,0-0.714,0.307-0.714,0.715v5.049c0,0.408,0.051,0.765,0.561,1.272
	l2.856,2.854c0.357,0.356,0.867,0.563,1.326,0.563h13.157c0.561,0,0.918-0.203,1.275-0.563l2.855-2.854
	c0.612-0.61,0.561-1.173,0.561-1.323L228.707,362.625L228.707,362.625z"/>
<path fill="#FFFFFF" d="M268.537,342.431h-3.315c-0.408,0-0.714,0.356-0.714,0.714V371.6c0,0.104-0.051,0.152-0.102,0.204
	l-1.274,1.274c-0.102,0.103-0.306,0.205-0.612,0.205h-9.128c-0.204,0-0.357-0.104-0.459-0.205l-1.326-1.274l-0.204-0.356v-28.303
	c0-0.355-0.306-0.714-0.714-0.714h-3.315c-0.408,0-0.714,0.356-0.714,0.714v30.139c0,0.563,0.204,0.969,0.561,1.325l2.856,2.856
	c0.306,0.306,0.663,0.561,1.326,0.561h13.157c0.561,0,0.969-0.255,1.275-0.561l2.855-2.856c0.408-0.407,0.561-0.765,0.561-1.274
	v-30.188C269.251,342.788,268.945,342.431,268.537,342.431z"/>
<path fill="#FFFFFF" d="M305.767,342.941c-0.459-0.459-0.969-0.511-1.326-0.511h-16.165c-0.408,0-0.714,0.307-0.714,0.714v34.167
	c0,0.408,0.306,0.714,0.714,0.714h3.314c0.408,0,0.714-0.306,0.714-0.714V364.92h12.137c0.459,0,0.867-0.104,1.326-0.563
	l2.855-2.854c0.355-0.355,0.561-0.814,0.561-1.273v-13.055c0-0.512-0.151-0.969-0.561-1.377L305.767,342.941z M304.441,358.342
	l-0.204,0.355l-1.326,1.274c-0.102,0.103-0.204,0.151-0.306,0.202h-10.301V347.17h10.25c0.204,0,0.255,0,0.357,0.104l1.326,1.326
	c0.102,0.104,0.204,0.307,0.204,0.459V358.342z"/>
<path fill="#FFFFFF" d="M345.19,342.941c-0.459-0.459-0.971-0.511-1.326-0.511h-16.165c-0.408,0-0.714,0.307-0.714,0.714v34.167
	c0,0.408,0.306,0.714,0.714,0.714h3.313c0.408,0,0.714-0.306,0.714-0.714V364.92h12.139c0.459,0,0.867-0.104,1.326-0.563
	l2.854-2.854c0.357-0.355,0.563-0.814,0.563-1.273v-13.055c0-0.512-0.153-0.969-0.563-1.377L345.19,342.941z M343.864,358.342
	l-0.204,0.355l-1.326,1.274c-0.102,0.103-0.204,0.151-0.306,0.202h-10.303V347.17h10.25c0.204,0,0.257,0,0.357,0.104l1.326,1.326
	c0.102,0.104,0.204,0.307,0.204,0.459L343.864,358.342L343.864,358.342z"/>
<path fill="#FFFFFF" d="M386.143,373.284H371.15v-30.24c0-0.356-0.357-0.611-0.716-0.611h-3.313c-0.357,0-0.714,0.255-0.714,0.611
	v34.27c0,0.408,0.306,0.714,0.714,0.714h19.021c0.407,0,0.716-0.306,0.716-0.714V374
	C386.856,373.588,386.55,373.284,386.143,373.284z"/>
<path fill="#FFFFFF" d="M420.669,342.431h-3.825c-0.407,0-0.609,0.255-0.866,0.663l-7.803,14.277l-7.803-14.277
	c-0.254-0.408-0.458-0.663-0.866-0.663h-3.825c-0.764,0-1.02,0.407-0.713,0.918l10.813,19.53v14.433c0,0.408,0.255,0.714,0.61,0.714
	h3.569c0.306,0,0.561-0.306,0.561-0.714v-14.381l10.862-19.582C421.688,342.838,421.434,342.431,420.669,342.431z"/>
<path fill="#FFFFFF" d="M481.205,342.941c-0.306-0.308-0.714-0.511-1.274-0.511h-13.208c-0.51,0-0.918,0.152-1.272,0.511
	l-2.855,2.906c-0.61,0.612-0.562,1.274-0.562,1.274v26.211c0,0-0.051,0.664,0.562,1.273l2.855,2.855
	c0.354,0.355,0.765,0.562,1.377,0.562h13.104c0.714,0,0.918-0.204,1.274-0.562l2.854-2.855c0.512-0.459,0.563-1.021,0.563-1.225
	v-5.404c0-0.408-0.306-0.714-0.714-0.714h-3.314c-0.408,0-0.714,0.306-0.714,0.714v3.468l-0.204,0.354l-1.273,1.275l-0.356,0.204
	h-9.435l-0.356-0.204l-1.273-1.275l-0.203-0.354v-22.54c0.051-0.102,0.102-0.203,0.203-0.306l1.273-1.326
	c0.051-0.051,0.104-0.103,0.204-0.103h9.791c0.104,0.052,0.152,0.103,0.204,0.152l1.224,1.274c0.104,0.103,0.204,0.204,0.204,0.459
	v3.519c0,0.408,0.308,0.715,0.714,0.715h3.314c0.408,0,0.714-0.307,0.714-0.715v-5.457c0-0.51-0.102-0.916-0.51-1.324
	L481.205,342.941z"/>
<path fill="#FFFFFF" d="M521.138,342.941c-0.459-0.459-0.866-0.511-1.272-0.511h-13.259c-0.46,0-0.815,0.104-1.226,0.511
	l-2.907,2.854c-0.405,0.408-0.51,0.715-0.51,1.326v26.16c0,0.406,0.104,0.865,0.563,1.324l2.854,2.855
	c0.307,0.307,0.663,0.562,1.274,0.562h13.208c0.61,0,0.969-0.255,1.272-0.562l2.856-2.855c0.406-0.406,0.561-0.918,0.561-1.527
	v-25.854c0-0.356,0-0.918-0.51-1.429L521.138,342.941z M519.813,371.6c0,0.104-0.052,0.204-0.103,0.256l-1.224,1.225
	c-0.104,0.103-0.256,0.203-0.512,0.203h-9.535c-0.152,0-0.307-0.103-0.407-0.203l-1.226-1.225c-0.051-0.052-0.103-0.152-0.103-0.256
	v-22.998l1.273-1.275c0.153-0.152,0.257-0.152,0.357-0.152h9.842c0.104,0,0.204,0,0.356,0.152l1.273,1.275V371.6H519.813z"/>
<path fill="#FFFFFF" d="M546.486,372.569h-3.314c-0.408,0-0.714,0.307-0.714,0.715v4.129c0,0.357,0.356,0.612,0.714,0.612h3.314
	c0.355,0,0.714-0.255,0.714-0.612v-4.129C547.2,372.875,546.895,372.569,546.486,372.569z"/>
<path fill="#FFFFFF" d="M170.397,35.543h3.314c0.408,0,0.714-0.306,0.714-0.714V21.111h13.106v13.718
	c0,0.408,0.306,0.714,0.714,0.714h3.314c0.408,0,0.714-0.306,0.714-0.714V0.662c0-0.407-0.306-0.714-0.714-0.714h-3.314
	c-0.408,0-0.714,0.307-0.714,0.714v15.707h-13.106V0.662c0-0.407-0.306-0.714-0.714-0.714h-3.314c-0.408,0-0.714,0.307-0.714,0.714
	v34.167C169.683,35.237,169.989,35.543,170.397,35.543z"/>
<path fill="#FFFFFF" d="M209.208,35.543h3.06c0.408,0,0.816-0.357,0.969-0.816l2.448-8.158h13.157l2.448,8.261
	c0.102,0.356,0.561,0.714,0.918,0.714h3.11c0.408,0,0.816-0.357,0.714-0.714L225.985,0.714C225.832,0.255,225.679,0,225.271,0
	h-6.017c-0.408,0-0.561,0.255-0.714,0.714l-10.097,34.115C208.341,35.186,208.8,35.543,209.208,35.543z M222.262,4.232l5.202,17.542
	h-10.403L222.262,4.232z"/>
<path fill="#FFFFFF" d="M252.914,35.543h3.314c0.408,0,0.714-0.306,0.714-0.714V8.669l11.984,26.211
	c0.153,0.306,0.408,0.663,0.816,0.663h3.723c0.408,0,0.765-0.306,0.765-0.714V0.662c0-0.407-0.357-0.714-0.765-0.714h-3.314
	c-0.357,0-0.714,0.307-0.714,0.714v24.427L258.523,0.662c-0.204-0.459-0.357-0.714-0.765-0.714h-4.844
	c-0.408,0-0.714,0.307-0.714,0.714v34.167C252.2,35.237,252.506,35.543,252.914,35.543z"/>
<path fill="#FFFFFF" d="M310.899,0.459c-0.459-0.459-0.918-0.511-1.326-0.511h-16.165c-0.408,0-0.714,0.307-0.714,0.714v34.167
	c0,0.408,0.306,0.714,0.714,0.714h16.165c0.714,0,0.918-0.153,1.326-0.561l2.854-2.856c0.51-0.51,0.563-1.02,0.563-1.274V4.64
	c0-0.611-0.153-0.917-0.563-1.325L310.899,0.459z M309.573,28.761c0,0.306-0.051,0.356-0.255,0.563l-1.275,1.275l-0.357,0.204
	h-10.25V4.691h10.352c0.153,0,0.204,0.051,0.255,0.102l1.275,1.326c0.151,0.204,0.255,0.356,0.255,0.51V28.761z"/>
<path fill="#FFFFFF" d="M332.83,32.126l2.854,2.856c0.357,0.356,0.767,0.561,1.376,0.561h13.106c0.714,0,0.918-0.204,1.275-0.561
	l2.854-2.856c0.51-0.459,0.563-1.02,0.563-1.224v-5.405c0-0.408-0.308-0.714-0.716-0.714h-3.313c-0.408,0-0.714,0.306-0.714,0.714
	v3.468l-0.204,0.356l-1.275,1.275l-0.355,0.204h-9.436l-0.355-0.204l-1.275-1.275l-0.204-0.356V6.425
	c0.053-0.102,0.104-0.204,0.204-0.306l1.275-1.326c0.051-0.051,0.102-0.102,0.204-0.102h9.791c0.102,0.051,0.151,0.102,0.204,0.152
	l1.224,1.275c0.102,0.102,0.204,0.204,0.204,0.459v3.519c0,0.408,0.306,0.714,0.714,0.714h3.314c0.406,0,0.714-0.306,0.714-0.714
	V4.64c0-0.51-0.104-0.917-0.512-1.325l-2.905-2.855c-0.308-0.307-0.714-0.511-1.275-0.511h-13.208c-0.51,0-0.918,0.153-1.275,0.511
	l-2.854,2.906c-0.612,0.612-0.563,1.274-0.563,1.274v26.212C332.269,30.852,332.218,31.515,332.83,32.126z"/>
<path fill="#FFFFFF" d="M373.17,35.543h3.315c0.406,0,0.713-0.306,0.713-0.714V22.438h8.361l4.998,12.392
	c0.152,0.356,0.563,0.714,0.918,0.714h3.521c0.562,0,0.765-0.357,0.612-0.714l-5.15-12.749l3.059-3.06
	c0.563-0.561,0.563-1.07,0.563-1.428V4.64c0-0.51-0.306-1.07-0.563-1.325l-2.854-2.855c-0.563-0.562-0.867-0.511-1.326-0.511H373.17
	c-0.408,0-0.714,0.307-0.714,0.714V34.83C372.456,35.237,372.762,35.543,373.17,35.543z M377.198,4.691h10.25
	c0.205,0,0.307,0.051,0.459,0.204l1.225,1.224c0.104,0.102,0.203,0.306,0.203,0.459v9.281c0,0.152-0.102,0.306-0.203,0.407
	l-1.326,1.275c-0.102,0.102-0.15,0.152-0.306,0.152h-10.302V4.691L377.198,4.691z"/>
<path fill="#FFFFFF" d="M410.554,35.543h3.062c0.407,0,0.813-0.357,0.969-0.816l2.447-8.158h13.155l2.447,8.261
	c0.104,0.356,0.563,0.714,0.918,0.714h3.111c0.407,0,0.813-0.357,0.714-0.714L427.331,0.714C427.178,0.255,427.024,0,426.617,0
	H420.6c-0.406,0-0.562,0.255-0.714,0.714l-10.098,34.115C409.688,35.186,410.146,35.543,410.554,35.543z M423.608,4.232
	l5.199,17.542h-10.401L423.608,4.232z"/>
<path fill="#FFFFFF" d="M471.189,19.378v-3.315c0-0.407-0.357-0.714-0.716-0.714h-12.188V4.691h14.788
	c0.306,0,0.408-0.408,0.408-0.714V0.662c0-0.407-0.357-0.714-0.716-0.714h-18.512c-0.407,0-0.714,0.307-0.714,0.714v34.167
	c0,0.408,0.307,0.714,0.714,0.714h3.315c0.406,0,0.714-0.306,0.714-0.714V20.092h12.188
	C470.832,20.092,471.189,19.785,471.189,19.378z"/>
<path fill="#FFFFFF" d="M489.5,4.742h7.802V34.93c0,0.357,0.309,0.612,0.612,0.612h3.569c0.307,0,0.61-0.255,0.61-0.612V4.742h7.804
	c0.406,0,0.714-0.357,0.714-0.714V0.714c0-0.408-0.308-0.766-0.714-0.766H489.5c-0.408,0-0.714,0.357-0.714,0.766v3.314
	C488.786,4.385,489.092,4.742,489.5,4.742z"/>
<path fill="#FFFFFF" d="M528.055,35.543h18.514c0.354,0,0.714-0.306,0.714-0.714v-3.314c0-0.408-0.357-0.714-0.714-0.714h-14.482
	V20.092h11.423c0.407,0,0.714-0.307,0.714-0.714v-3.315c0-0.407-0.307-0.714-0.714-0.714h-11.423V4.691h14.482
	c0.354,0,0.714-0.307,0.714-0.714V0.662c0-0.407-0.357-0.714-0.714-0.714h-18.514c-0.405,0-0.714,0.307-0.714,0.714v34.167
	C527.341,35.237,527.646,35.543,528.055,35.543z"/>
<path fill="#FFFFFF" d="M565.029,35.543h16.166c0.714,0,0.918-0.153,1.323-0.561l2.856-2.856c0.51-0.51,0.563-1.02,0.563-1.274V4.64
	c0-0.611-0.153-0.917-0.563-1.325L582.52,0.46c-0.459-0.459-0.918-0.511-1.323-0.511H565.03c-0.407,0-0.714,0.307-0.714,0.714V34.83
	C564.315,35.237,564.622,35.543,565.029,35.543z M569.059,4.691h10.354c0.153,0,0.204,0.051,0.255,0.102l1.275,1.326
	c0.15,0.204,0.255,0.356,0.255,0.51v22.132c0,0.306-0.052,0.356-0.255,0.563l-1.275,1.275l-0.356,0.204h-10.25L569.059,4.691
	L569.059,4.691z"/>
</svg>
